<mxfile host="app.diagrams.net" modified="2024-05-15T16:40:59.185Z" agent="Mozilla/5.0 (Windows NT 10.0; Win64; x64) AppleWebKit/537.36 (KHTML, like Gecko) Chrome/122.0.0.0 YaBrowser/24.4.0.0 Safari/537.36" etag="8j5aEFptToTEAxdoW9k5" version="24.4.0" type="github">
  <diagram name="Page-1" id="2YBvvXClWsGukQMizWep">
    <mxGraphModel dx="1155" dy="653" grid="1" gridSize="10" guides="1" tooltips="1" connect="1" arrows="1" fold="1" page="1" pageScale="1" pageWidth="900" pageHeight="1600" math="0" shadow="0">
      <root>
        <mxCell id="0" />
        <mxCell id="1" parent="0" />
        <mxCell id="8c-bmwtY3mxcumIEPfAq-3" value="&lt;font style=&quot;font-size: 14px;&quot; face=&quot;Times New Roman&quot;&gt;Исходные данные:&lt;/font&gt;&lt;div style=&quot;font-size: 14px;&quot;&gt;&lt;font style=&quot;font-size: 14px;&quot; face=&quot;_JJkoA6HLlipmjmsha6d&quot;&gt;1. Длина и вылет стекла по фасаду&lt;/font&gt;&lt;/div&gt;&lt;div style=&quot;font-size: 14px;&quot;&gt;&lt;font style=&quot;font-size: 14px;&quot; face=&quot;_JJkoA6HLlipmjmsha6d&quot;&gt;2. Местоположение&amp;nbsp;&lt;/font&gt;&lt;/div&gt;&lt;div style=&quot;font-size: 14px;&quot;&gt;&lt;font style=&quot;font-size: 14px;&quot; face=&quot;_JJkoA6HLlipmjmsha6d&quot;&gt;3. Тип фасада&lt;/font&gt;&lt;/div&gt;" style="ellipse;whiteSpace=wrap;html=1;labelBackgroundColor=none;" vertex="1" parent="1">
          <mxGeometry x="305" y="170" width="190" height="130" as="geometry" />
        </mxCell>
        <mxCell id="8c-bmwtY3mxcumIEPfAq-7" value="" style="endArrow=classic;html=1;rounded=0;exitX=0.5;exitY=1;exitDx=0;exitDy=0;" edge="1" parent="1" source="8c-bmwtY3mxcumIEPfAq-3">
          <mxGeometry width="50" height="50" relative="1" as="geometry">
            <mxPoint x="355" y="360" as="sourcePoint" />
            <mxPoint x="400" y="340" as="targetPoint" />
          </mxGeometry>
        </mxCell>
        <mxCell id="8c-bmwtY3mxcumIEPfAq-8" value="1. Этап Классификация параметров козырька" style="rounded=0;whiteSpace=wrap;html=1;" vertex="1" parent="1">
          <mxGeometry x="340" y="340" width="120" height="60" as="geometry" />
        </mxCell>
        <mxCell id="8c-bmwtY3mxcumIEPfAq-38" value="1 этап. Классификация параметров козырька" style="swimlane;fontStyle=0;childLayout=stackLayout;horizontal=1;startSize=26;fillColor=none;horizontalStack=0;resizeParent=1;resizeParentMax=0;resizeLast=0;collapsible=1;marginBottom=0;html=1;" vertex="1" parent="1">
          <mxGeometry x="260" y="440" width="280" height="120" as="geometry" />
        </mxCell>
        <mxCell id="8c-bmwtY3mxcumIEPfAq-39" value="Стекло-триплекс (тип и толщина, расположение отверстий для крепления)" style="text;strokeColor=none;fillColor=none;align=left;verticalAlign=top;spacingLeft=4;spacingRight=4;overflow=hidden;rotatable=0;points=[[0,0.5],[1,0.5]];portConstraint=eastwest;whiteSpace=wrap;html=1;" vertex="1" parent="8c-bmwtY3mxcumIEPfAq-38">
          <mxGeometry y="26" width="280" height="44" as="geometry" />
        </mxCell>
        <mxCell id="8c-bmwtY3mxcumIEPfAq-41" value="Фурнитура крепления (количество вант и стеклодержателей, креплений для них&lt;span style=&quot;background-color: initial;&quot;&gt;)&lt;/span&gt;" style="text;strokeColor=none;fillColor=none;align=left;verticalAlign=top;spacingLeft=4;spacingRight=4;overflow=hidden;rotatable=0;points=[[0,0.5],[1,0.5]];portConstraint=eastwest;whiteSpace=wrap;html=1;" vertex="1" parent="8c-bmwtY3mxcumIEPfAq-38">
          <mxGeometry y="70" width="280" height="50" as="geometry" />
        </mxCell>
        <mxCell id="8c-bmwtY3mxcumIEPfAq-43" value="" style="endArrow=none;html=1;rounded=0;entryX=0.5;entryY=1;entryDx=0;entryDy=0;exitX=0.5;exitY=0;exitDx=0;exitDy=0;" edge="1" parent="1" source="8c-bmwtY3mxcumIEPfAq-38" target="8c-bmwtY3mxcumIEPfAq-8">
          <mxGeometry width="50" height="50" relative="1" as="geometry">
            <mxPoint x="365" y="460" as="sourcePoint" />
            <mxPoint x="415" y="410" as="targetPoint" />
          </mxGeometry>
        </mxCell>
        <mxCell id="8c-bmwtY3mxcumIEPfAq-45" value="Подбор конфигураций для стекольного козырька" style="text;html=1;align=center;verticalAlign=middle;whiteSpace=wrap;rounded=0;" vertex="1" parent="1">
          <mxGeometry x="240" y="130" width="320" height="20" as="geometry" />
        </mxCell>
        <mxCell id="8c-bmwtY3mxcumIEPfAq-46" value="" style="endArrow=classic;html=1;rounded=0;exitX=0.501;exitY=1.004;exitDx=0;exitDy=0;exitPerimeter=0;" edge="1" parent="1" source="8c-bmwtY3mxcumIEPfAq-41">
          <mxGeometry width="50" height="50" relative="1" as="geometry">
            <mxPoint x="280" y="630" as="sourcePoint" />
            <mxPoint x="400" y="600" as="targetPoint" />
          </mxGeometry>
        </mxCell>
        <mxCell id="8c-bmwtY3mxcumIEPfAq-47" value="2 этап. Назначение вариантов конфигураций на основе деформированого состояния стекла-триплекс под действием распределенной нагрузки" style="rounded=0;whiteSpace=wrap;html=1;" vertex="1" parent="1">
          <mxGeometry x="280" y="600" width="240" height="100" as="geometry" />
        </mxCell>
        <mxCell id="8c-bmwtY3mxcumIEPfAq-51" value="" style="rounded=0;whiteSpace=wrap;html=1;" vertex="1" parent="1">
          <mxGeometry x="340" y="740" width="120" height="60" as="geometry" />
        </mxCell>
      </root>
    </mxGraphModel>
  </diagram>
</mxfile>
